<svg width="957" height="96" viewBox="0 0 957 96" fill="none" xmlns="http://www.w3.org/2000/svg">
<path d="M7.37429 1.87709C10.0559 1.87709 12.4693 3.21787 14.0782 5.76534L61.8099 80.1788L109.676 5.76534C111.285 3.21787 113.564 1.87709 116.514 1.87709C121.072 1.87709 124.022 3.88826 124.022 7.37428C124.022 8.71506 123.62 9.78768 122.413 11.6648L69.3183 92.3799C67.7093 94.9274 64.8937 96 62.078 96C58.9943 96 56.4468 94.7933 54.8378 92.3799L1.47486 11.5307C0.268156 9.78768 0 8.71506 0 7.37428C0 3.88826 2.81564 1.87709 7.37429 1.87709ZM232.613 69.1844V28.4245C232.613 18.5027 224.434 13.5419 208.21 13.5419H178.847C162.624 13.5419 154.445 18.5027 154.445 28.4245V69.1844C154.445 79.2402 162.624 84.3352 179.116 84.3352H207.942C224.434 84.3352 232.613 79.2402 232.613 69.1844ZM207.808 95.3296H179.25C153.104 95.3296 139.965 86.7486 139.965 69.5866V28.1564C139.965 11.1285 152.836 2.54748 178.579 2.54748H208.479C234.222 2.54748 247.093 11.1285 247.093 28.1564V69.5866C247.093 86.7486 233.953 95.3296 207.808 95.3296ZM364.04 94.6592L287.616 58.9945V90.3687C287.616 94.1229 285.068 96 280.242 96C275.549 96 273.136 94.1229 273.136 90.3687V7.2402C273.136 4.15642 275.281 2.54748 279.303 2.54748H342.32C370.074 2.54748 384.018 10.0558 384.018 25.3407V35.2625C384.018 50.1453 370.074 57.6537 342.32 57.6537H310.275L372.487 85.0056C375.303 86.2123 376.51 87.8212 376.51 90.2346C376.51 93.7207 373.828 96 369.135 96C367.124 96 366.186 95.7318 364.04 94.6592ZM287.616 14.4804V47.4638H342.722C360.688 47.4638 369.538 43.4414 369.538 35.2625V25.6089C369.538 17.5642 360.688 13.5419 342.856 13.5419H288.689C288.018 13.5419 287.616 13.81 287.616 14.4804ZM444.087 90.3687V13.5419H407.482C403.057 13.5419 400.778 11.7988 400.778 8.04467C400.778 4.42456 403.057 2.54748 407.482 2.54748H495.037C499.595 2.54748 501.875 4.42456 501.875 7.91059C501.875 11.6648 499.595 13.5419 495.037 13.5419H458.567V90.3687C458.567 94.1229 456.154 96 451.461 96C446.5 96 444.087 94.1229 444.087 90.3687ZM522.045 90.3687V7.50835C522.045 3.75418 524.592 1.87709 529.553 1.87709C534.112 1.87709 536.525 3.75418 536.525 7.50835V90.3687C536.525 94.1229 533.978 96 529.151 96C524.458 96 522.045 94.1229 522.045 90.3687ZM701.253 10.0558L699.778 32.715C699.376 36.4692 697.364 38.8826 692.269 38.8826C687.174 38.8826 685.029 36.6033 685.029 32.9832C685.029 31.5083 685.297 29.7653 685.834 27.7541L689.99 4.96087C690.795 1.87709 692.806 0 696.292 0C700.18 0 701.655 1.87709 701.655 4.69272C701.655 6.0335 701.387 7.64243 701.253 10.0558ZM809.956 95.3296H709.398C704.973 95.3296 702.694 93.7207 702.694 90.6369V65.1621C702.694 50.9498 715.297 43.8437 740.504 43.8437H780.459C795.074 43.8437 802.314 40.2234 802.314 33.1172V24.5363C802.314 17.162 794.94 13.5419 780.057 13.5419H756.593C752.169 13.5419 749.889 11.6648 749.889 8.04467C749.889 4.42456 752.169 2.54748 756.593 2.54748H780.057C804.459 2.54748 816.794 9.78768 816.794 23.9999V34.0558C816.794 47.7319 804.593 54.5699 780.325 54.5699H739.431C724.549 54.5699 717.174 58.3241 717.174 65.6984V83.5308C717.174 84.0671 717.577 84.3352 718.381 84.3352H809.956C814.515 84.3352 816.794 86.2123 816.794 89.8324C816.794 93.4525 814.515 95.3296 809.956 95.3296ZM956.985 60.2012V69.8548C956.985 86.8827 943.175 95.3296 915.689 95.3296H880.159C853.745 95.3296 840.472 86.6145 840.472 69.0503V27.486C840.472 10.8603 853.343 2.54748 879.086 2.54748H902.684C906.974 2.54748 909.388 4.42456 909.388 8.04467C909.388 11.6648 906.974 13.5419 902.684 13.5419H879.354C863.131 13.5419 854.952 18.3687 854.952 27.7541V34.8603H915.287C943.175 34.8603 956.985 43.3074 956.985 60.2012ZM915.823 45.5867H854.952V68.6481C854.952 79.1062 863.533 84.3352 880.695 84.3352H916.226C933.79 84.3352 942.371 79.3743 942.371 69.4526V60.3353C942.371 50.5476 933.522 45.5867 915.823 45.5867Z" fill="white"/>
<path opacity="0.88" fill-rule="evenodd" clip-rule="evenodd" d="M678.826 8.57084C678.826 8.57084 619.496 14.5923 589.07 89.5874L582.718 67.9465L559.115 90.5405C559.115 90.5405 601.83 -7.08095 678.826 8.57084Z" fill="white"/>
<path opacity="0.88" fill-rule="evenodd" clip-rule="evenodd" d="M555.19 8.47318C555.19 8.47318 616.488 14.5913 647.806 89.6358L654.405 68.0052L678.758 90.6377C678.758 90.6377 634.778 -7.05321 555.19 8.47318Z" fill="white"/>
</svg>
